<?xml version="1.0" encoding="UTF-8" standalone="no"?>
<!DOCTYPE svg PUBLIC "-//W3C//DTD SVG 1.1//EN"
 "http://www.w3.org/Graphics/SVG/1.1/DTD/svg11.dtd">
<!-- Generated by graphviz version 2.42.3 (20191010.1750)
 -->
<!-- Title: Tree Pages: 1 -->
<svg width="474pt" height="269pt"
 viewBox="0.00 0.00 474.00 269.00" xmlns="http://www.w3.org/2000/svg" xmlns:xlink="http://www.w3.org/1999/xlink">
<g id="graph0" class="graph" transform="scale(1 1) rotate(0) translate(4 265)">
<title>Tree</title>
<polygon fill="white" stroke="transparent" points="-4,4 -4,-265 470,-265 470,4 -4,4"/>
<!-- 0 -->
<g id="node1" class="node">
<title>0</title>
<path fill="#f6d6be" stroke="black" d="M272.5,-261C272.5,-261 188.5,-261 188.5,-261 182.5,-261 176.5,-255 176.5,-249 176.5,-249 176.5,-205 176.5,-205 176.5,-199 182.5,-193 188.5,-193 188.5,-193 272.5,-193 272.5,-193 278.5,-193 284.5,-199 284.5,-205 284.5,-205 284.5,-249 284.5,-249 284.5,-255 278.5,-261 272.5,-261"/>
<text text-anchor="middle" x="230.5" y="-245.8" font-family="Helvetica,sans-Serif" font-size="14.00">x1 &lt;= 0.197</text>
<text text-anchor="middle" x="230.5" y="-230.8" font-family="Helvetica,sans-Serif" font-size="14.00">mse = 0.098</text>
<text text-anchor="middle" x="230.5" y="-215.8" font-family="Helvetica,sans-Serif" font-size="14.00">samples = 200</text>
<text text-anchor="middle" x="230.5" y="-200.8" font-family="Helvetica,sans-Serif" font-size="14.00">value = 0.354</text>
</g>
<!-- 1 -->
<g id="node2" class="node">
<title>1</title>
<path fill="#eb9d65" stroke="black" d="M208,-157C208,-157 131,-157 131,-157 125,-157 119,-151 119,-145 119,-145 119,-101 119,-101 119,-95 125,-89 131,-89 131,-89 208,-89 208,-89 214,-89 220,-95 220,-101 220,-101 220,-145 220,-145 220,-151 214,-157 208,-157"/>
<text text-anchor="middle" x="169.5" y="-141.8" font-family="Helvetica,sans-Serif" font-size="14.00">x1 &lt;= 0.092</text>
<text text-anchor="middle" x="169.5" y="-126.8" font-family="Helvetica,sans-Serif" font-size="14.00">mse = 0.038</text>
<text text-anchor="middle" x="169.5" y="-111.8" font-family="Helvetica,sans-Serif" font-size="14.00">samples = 44</text>
<text text-anchor="middle" x="169.5" y="-96.8" font-family="Helvetica,sans-Serif" font-size="14.00">value = 0.689</text>
</g>
<!-- 0&#45;&gt;1 -->
<g id="edge1" class="edge">
<title>0&#45;&gt;1</title>
<path fill="none" stroke="black" d="M210.7,-192.88C205.58,-184.33 200.01,-175.01 194.66,-166.07"/>
<polygon fill="black" stroke="black" points="197.55,-164.09 189.41,-157.3 191.54,-167.68 197.55,-164.09"/>
<text text-anchor="middle" x="183.32" y="-177.84" font-family="Helvetica,sans-Serif" font-size="14.00">True</text>
</g>
<!-- 4 -->
<g id="node5" class="node">
<title>4</title>
<path fill="#fae6d7" stroke="black" d="M334.5,-157C334.5,-157 250.5,-157 250.5,-157 244.5,-157 238.5,-151 238.5,-145 238.5,-145 238.5,-101 238.5,-101 238.5,-95 244.5,-89 250.5,-89 250.5,-89 334.5,-89 334.5,-89 340.5,-89 346.5,-95 346.5,-101 346.5,-101 346.5,-145 346.5,-145 346.5,-151 340.5,-157 334.5,-157"/>
<text text-anchor="middle" x="292.5" y="-141.8" font-family="Helvetica,sans-Serif" font-size="14.00">x1 &lt;= 0.772</text>
<text text-anchor="middle" x="292.5" y="-126.8" font-family="Helvetica,sans-Serif" font-size="14.00">mse = 0.074</text>
<text text-anchor="middle" x="292.5" y="-111.8" font-family="Helvetica,sans-Serif" font-size="14.00">samples = 156</text>
<text text-anchor="middle" x="292.5" y="-96.8" font-family="Helvetica,sans-Serif" font-size="14.00">value = 0.259</text>
</g>
<!-- 0&#45;&gt;4 -->
<g id="edge4" class="edge">
<title>0&#45;&gt;4</title>
<path fill="none" stroke="black" d="M250.63,-192.88C255.83,-184.33 261.49,-175.01 266.93,-166.07"/>
<polygon fill="black" stroke="black" points="270.06,-167.66 272.26,-157.3 264.07,-164.03 270.06,-167.66"/>
<text text-anchor="middle" x="278.18" y="-177.89" font-family="Helvetica,sans-Serif" font-size="14.00">False</text>
</g>
<!-- 2 -->
<g id="node3" class="node">
<title>2</title>
<path fill="#e58139" stroke="black" d="M89,-53C89,-53 12,-53 12,-53 6,-53 0,-47 0,-41 0,-41 0,-12 0,-12 0,-6 6,0 12,0 12,0 89,0 89,0 95,0 101,-6 101,-12 101,-12 101,-41 101,-41 101,-47 95,-53 89,-53"/>
<text text-anchor="middle" x="50.5" y="-37.8" font-family="Helvetica,sans-Serif" font-size="14.00">mse = 0.018</text>
<text text-anchor="middle" x="50.5" y="-22.8" font-family="Helvetica,sans-Serif" font-size="14.00">samples = 20</text>
<text text-anchor="middle" x="50.5" y="-7.8" font-family="Helvetica,sans-Serif" font-size="14.00">value = 0.854</text>
</g>
<!-- 1&#45;&gt;2 -->
<g id="edge2" class="edge">
<title>1&#45;&gt;2</title>
<path fill="none" stroke="black" d="M127.88,-88.95C115.9,-79.43 102.85,-69.07 90.94,-59.62"/>
<polygon fill="black" stroke="black" points="92.92,-56.71 82.91,-53.24 88.56,-62.2 92.92,-56.71"/>
</g>
<!-- 3 -->
<g id="node4" class="node">
<title>3</title>
<path fill="#f0b489" stroke="black" d="M208,-53C208,-53 131,-53 131,-53 125,-53 119,-47 119,-41 119,-41 119,-12 119,-12 119,-6 125,0 131,0 131,0 208,0 208,0 214,0 220,-6 220,-12 220,-12 220,-41 220,-41 220,-47 214,-53 208,-53"/>
<text text-anchor="middle" x="169.5" y="-37.8" font-family="Helvetica,sans-Serif" font-size="14.00">mse = 0.013</text>
<text text-anchor="middle" x="169.5" y="-22.8" font-family="Helvetica,sans-Serif" font-size="14.00">samples = 24</text>
<text text-anchor="middle" x="169.5" y="-7.8" font-family="Helvetica,sans-Serif" font-size="14.00">value = 0.552</text>
</g>
<!-- 1&#45;&gt;3 -->
<g id="edge3" class="edge">
<title>1&#45;&gt;3</title>
<path fill="none" stroke="black" d="M169.5,-88.95C169.5,-80.72 169.5,-71.85 169.5,-63.48"/>
<polygon fill="black" stroke="black" points="173,-63.24 169.5,-53.24 166,-63.24 173,-63.24"/>
</g>
<!-- 5 -->
<g id="node6" class="node">
<title>5</title>
<path fill="#ffffff" stroke="black" d="M334.5,-53C334.5,-53 250.5,-53 250.5,-53 244.5,-53 238.5,-47 238.5,-41 238.5,-41 238.5,-12 238.5,-12 238.5,-6 244.5,0 250.5,0 250.5,0 334.5,0 334.5,0 340.5,0 346.5,-6 346.5,-12 346.5,-12 346.5,-41 346.5,-41 346.5,-47 340.5,-53 334.5,-53"/>
<text text-anchor="middle" x="292.5" y="-37.8" font-family="Helvetica,sans-Serif" font-size="14.00">mse = 0.015</text>
<text text-anchor="middle" x="292.5" y="-22.8" font-family="Helvetica,sans-Serif" font-size="14.00">samples = 110</text>
<text text-anchor="middle" x="292.5" y="-7.8" font-family="Helvetica,sans-Serif" font-size="14.00">value = 0.111</text>
</g>
<!-- 4&#45;&gt;5 -->
<g id="edge5" class="edge">
<title>4&#45;&gt;5</title>
<path fill="none" stroke="black" d="M292.5,-88.95C292.5,-80.72 292.5,-71.85 292.5,-63.48"/>
<polygon fill="black" stroke="black" points="296,-63.24 292.5,-53.24 289,-63.24 296,-63.24"/>
</g>
<!-- 6 -->
<g id="node7" class="node">
<title>6</title>
<path fill="#edaa79" stroke="black" d="M454,-53C454,-53 377,-53 377,-53 371,-53 365,-47 365,-41 365,-41 365,-12 365,-12 365,-6 371,0 377,0 377,0 454,0 454,0 460,0 466,-6 466,-12 466,-12 466,-41 466,-41 466,-47 460,-53 454,-53"/>
<text text-anchor="middle" x="415.5" y="-37.8" font-family="Helvetica,sans-Serif" font-size="14.00">mse = 0.036</text>
<text text-anchor="middle" x="415.5" y="-22.8" font-family="Helvetica,sans-Serif" font-size="14.00">samples = 46</text>
<text text-anchor="middle" x="415.5" y="-7.8" font-family="Helvetica,sans-Serif" font-size="14.00">value = 0.615</text>
</g>
<!-- 4&#45;&gt;6 -->
<g id="edge6" class="edge">
<title>4&#45;&gt;6</title>
<path fill="none" stroke="black" d="M335.52,-88.95C348.02,-79.34 361.65,-68.87 374.05,-59.34"/>
<polygon fill="black" stroke="black" points="376.2,-62.1 382,-53.24 371.94,-56.55 376.2,-62.1"/>
</g>
</g>
</svg>
